<svg width="98" height="122" viewBox="0 0 98 122" fill="none" xmlns="http://www.w3.org/2000/svg">
<path d="M36.0514 1C13.0214 4.56918 -4.86469 15.6793 2.80058 42.0494C8.7054 62.3632 36.1762 75.3572 54.222 60.9383C58.5457 57.4835 57.8811 49.7828 55.4581 45.3827C51.625 38.422 44.8838 36.7638 37.4111 38.7777C23.8364 42.4363 10.2714 57.453 14.5435 72.2346C21.229 95.3665 44.7064 106.863 67.2627 109.21C71.7557 109.677 105.521 107.52 87.1638 102.667C83.8322 101.786 73.7583 99.5414 77.0279 100.63C82.4489 102.434 85.5701 103.222 91.4283 103.222C92.5914 103.222 98.6696 102.373 96.5581 104.951C92.2348 110.228 88.3393 115.813 83.8882 121" stroke="#9EA3A4" stroke-width="2" stroke-linecap="round"/>
</svg>
